<?xml version="1.0" encoding="utf-8"?>
<!-- Generator: Adobe Illustrator 16.0.0, SVG Export Plug-In . SVG Version: 6.00 Build 0)  -->
<!DOCTYPE svg PUBLIC "-//W3C//DTD SVG 1.1//EN" "http://www.w3.org/Graphics/SVG/1.1/DTD/svg11.dtd">
<svg version="1.1" id="Layer_1" xmlns="http://www.w3.org/2000/svg" xmlns:xlink="http://www.w3.org/1999/xlink" x="0px" y="0px"
   width="49.561px" height="66.676px" viewBox="0 0 49.561 66.676" enable-background="new 0 0 49.561 66.676" xml:space="preserve">
<g>
  <g>
    <path fill="#0000" d="M42.158,29.357c-4.855-3.383-12.01-5.1-21.264-5.1h-2.061V15.24h23.381l2-15.24H14.148L0,14.15v52.525
      h21.568c8.967,0,15.939-1.887,20.723-5.607c4.824-3.75,7.27-9.211,7.27-16.23C49.561,37.99,47.07,32.781,42.158,29.357z
       M28.408,50.234c-1.52,1.156-4.109,1.74-7.693,1.74h-1.881V38.689h1.791c3.445,0,6.021,0.547,7.652,1.625
      c1.588,1.049,2.359,2.646,2.359,4.883C30.637,47.449,29.908,49.098,28.408,50.234z"/>
  </g>
</g>
<g>
  <polygon fill="#ACD489" points="14.131,14.18 -0.041,14.18 14.131,0.008 	"/>
</g>
</svg>
