<?xml version="1.0" encoding="UTF-8" standalone="no"?>
<svg
   xmlns:dc="http://purl.org/dc/elements/1.1/"
   xmlns:cc="http://creativecommons.org/ns#"
   xmlns:rdf="http://www.w3.org/1999/02/22-rdf-syntax-ns#"
   xmlns:svg="http://www.w3.org/2000/svg"
   xmlns="http://www.w3.org/2000/svg"
   viewBox="0 0 553.28003 553.28003"
   height="553.28003"
   width="553.28003"
   xml:space="preserve"
   id="svg2"
   version="1.1"><metadata
     id="metadata8"><rdf:RDF><cc:Work
         rdf:about=""><dc:format>image/svg+xml</dc:format><dc:type
           rdf:resource="http://purl.org/dc/dcmitype/StillImage" /></cc:Work></rdf:RDF></metadata><defs
     id="defs6"><clipPath
       id="clipPath20"
       clipPathUnits="userSpaceOnUse"><path
         id="path18"
         d="M 0,4149.59 V 0 h 4149.59 v 4149.59 z" /></clipPath></defs><g
     transform="matrix(1.3333333,0,0,-1.3333333,0,553.28)"
     id="g10"><g
       transform="scale(0.1)"
       id="g12"><g
         id="g14"><g
           clip-path="url(#clipPath20)"
           id="g16"><path
             id="path22"
             style="fill:#4d71a9;fill-opacity:1;fill-rule:evenodd;stroke:none"
             d="M 639.418,4149.59 H 3510.17 c 353.13,0 639.42,-286.29 639.42,-639.42 V 639.422 C 4149.59,286.289 3863.3,0 3510.17,0 H 639.418 C 286.285,0 0,286.289 0,639.422 V 3510.17 c 0,353.13 286.285,639.42 639.418,639.42 v 0" /><path
             id="path24"
             style="fill:#ffffff;fill-opacity:1;fill-rule:evenodd;stroke:none"
             d="m 2039.98,1244.75 h 169.74 c 0,0 51.26,5.65 77.47,33.85 24.09,25.92 23.32,74.56 23.32,74.56 0,0 -3.32,227.76 102.37,261.3 104.23,33.06 238.04,-220.12 379.86,-317.48 107.25,-73.65 188.75,-57.53 188.75,-57.53 l 379.25,5.3 c 0,0 198.38,12.24 104.31,168.22 -7.7,12.74 -54.8,115.38 -281.99,326.26 -237.82,220.72 -205.94,185.01 80.51,566.8 174.45,232.51 244.18,374.45 222.39,435.24 -20.76,57.92 -149.08,42.62 -149.08,42.62 l -427,-2.64 c 0,0 -31.68,4.31 -55.14,-9.73 -22.95,-13.73 -37.68,-45.81 -37.68,-45.81 0,0 -67.61,-179.91 -157.71,-332.94 -190.14,-322.86 -266.18,-339.95 -297.26,-319.87 -72.31,46.73 -54.24,187.69 -54.24,287.86 0,312.9 47.46,443.36 -92.42,477.13 -46.41,11.2 -80.6,18.61 -199.31,19.82 -152.37,1.55 -281.3,-0.47 -354.32,-36.24 -48.58,-23.79 -86.06,-76.79 -63.22,-79.84 28.23,-3.76 92.13,-17.25 126.01,-63.35 43.77,-59.55 42.24,-193.23 42.24,-193.23 0,0 25.15,-368.33 -58.72,-414.07 -57.55,-31.38 -136.51,32.68 -306.03,325.6 -86.84,150.04 -152.43,315.91 -152.43,315.91 0,0 -12.63,30.99 -35.19,47.58 -27.36,20.1 -65.59,26.47 -65.59,26.47 l -405.78,-2.65 c 0,0 -60.902,-1.7 -83.278,-28.19 -19.91,-23.58 -1.589,-72.29 -1.589,-72.29 0,0 317.66,-743.22 677.377,-1117.76 329.87,-343.44 704.38,-320.9 704.38,-320.9 v 0" /></g></g></g></g></svg>